<svg width="27" height="26" viewBox="0 0 27 26" fill="none" xmlns="http://www.w3.org/2000/svg">
<path d="M13.5 11.3046V19.9712M11.25 19.9712H15.75H11.25ZM11.25 12.4962L13.5 11.3046L11.25 12.4962Z" stroke="#022179" stroke-linecap="round" stroke-linejoin="round"/>
<path d="M21.9622 4.94H5.03775C4.4301 4.94 3.9375 5.41436 3.9375 5.9995V22.2972C3.9375 22.8823 4.4301 23.3567 5.03775 23.3567H21.9622C22.5699 23.3567 23.0625 22.8823 23.0625 22.2972V5.9995C23.0625 5.41436 22.5699 4.94 21.9622 4.94Z" stroke="#022179" stroke-linecap="round" stroke-linejoin="round"/>
<path d="M17.1562 4.94002V3.58586C17.1562 3.22671 17.3044 2.88227 17.5681 2.62832C17.8319 2.37436 18.1895 2.23169 18.5625 2.23169C18.9355 2.23169 19.2931 2.37436 19.5569 2.62832C19.8206 2.88227 19.9688 3.22671 19.9688 3.58586V4.94002M3.9375 7.91919H23.0625H3.9375ZM7.03125 4.94002V3.58586C7.03125 3.22671 7.17941 2.88227 7.44313 2.62832C7.70685 2.37436 8.06454 2.23169 8.4375 2.23169V2.23169C8.81046 2.23169 9.16815 2.37436 9.43187 2.62832C9.69559 2.88227 9.84375 3.22671 9.84375 3.58586V4.94002H7.03125Z" stroke="#022179" stroke-linecap="round" stroke-linejoin="round"/>
</svg>
