<svg width="26" height="26" viewBox="0 0 26 26" fill="none" xmlns="http://www.w3.org/2000/svg">
<path fill-rule="evenodd" clip-rule="evenodd" d="M18.8608 15.1667H16.51C19.3876 11.5758 18.9572 6.36202 15.5297 3.29164C12.1021 0.221268 6.87261 0.364884 3.61875 3.61875C0.364884 6.87261 0.221268 12.1021 3.29164 15.5297C6.36202 18.9572 11.5758 19.3876 15.1667 16.51V18.8608L21.6667 25.3608L25.3608 21.6667L18.8608 15.1667ZM9.75001 16.25C6.16016 16.25 3.25001 13.3399 3.25001 9.75001C3.25001 6.16016 6.16016 3.25001 9.75001 3.25001C13.3399 3.25001 16.25 6.16016 16.25 9.75001C16.25 11.4739 15.5652 13.1272 14.3462 14.3462C13.1272 15.5652 11.4739 16.25 9.75001 16.25ZM17.3333 17.9725V17.3333H17.9725L22.3058 21.6667L21.6667 22.3058L17.3333 17.9725Z" fill="#022179"/>
</svg>
