<svg width="27" height="26" viewBox="0 0 27 26" fill="none" xmlns="http://www.w3.org/2000/svg">
<path d="M11.25 18.6767L12.75 19.3989V14.6395C12.7492 14.45 12.6711 14.2684 12.5325 14.1339L7.6725 9.3889H19.3425L14.49 14.1339C14.3514 14.2684 14.2733 14.45 14.2725 14.6395L14.25 20.2222L15.75 20.9445V14.9356L20.685 10.1111C20.8824 9.91827 20.9952 9.65966 21 9.3889V8.66668C21 8.47514 20.921 8.29144 20.7803 8.15599C20.6397 8.02055 20.4489 7.94446 20.25 7.94446H6.75C6.55109 7.94446 6.36032 8.02055 6.21967 8.15599C6.07902 8.29144 6 8.47514 6 8.66668V9.3889C6.0048 9.65966 6.11759 9.91827 6.315 10.1111L11.25 14.9356V18.6767Z" fill="#022179"/>
<path d="M13.5 1.44446C11.1266 1.44446 8.80655 2.12218 6.83316 3.39192C4.85977 4.66166 3.3217 6.46639 2.41345 8.57789C1.5052 10.6894 1.26756 13.0128 1.73058 15.2544C2.1936 17.4959 3.33649 19.555 5.01472 21.171C6.69295 22.7871 8.83115 23.8877 11.1589 24.3335C13.4867 24.7794 15.8995 24.5506 18.0922 23.676C20.2849 22.8013 22.1591 21.3202 23.4776 19.4199C24.7962 17.5196 25.5 15.2855 25.5 13C25.5 9.93529 24.2357 6.99609 21.9853 4.829C19.7349 2.66191 16.6826 1.44446 13.5 1.44446ZM13.5 23.1111C11.4233 23.1111 9.39323 22.5181 7.66652 21.4071C5.9398 20.2961 4.59399 18.7169 3.79927 16.8694C3.00455 15.0218 2.79662 12.9888 3.20176 11.0274C3.6069 9.06607 4.60693 7.26444 6.07538 5.85038C7.54384 4.43631 9.41476 3.47332 11.4516 3.08318C13.4884 2.69305 15.5996 2.89328 17.5182 3.65857C19.4368 4.42385 21.0767 5.71982 22.2304 7.38258C23.3842 9.04534 24 11.0002 24 13C24 15.6816 22.8938 18.2534 20.9246 20.1496C18.9555 22.0458 16.2848 23.1111 13.5 23.1111Z" fill="#022179"/>
</svg>
